<?xml version="1.0" encoding="UTF-8" standalone="no"?>
<!-- Created with Inkscape (http://www.inkscape.org/) -->

<svg
   xmlns:dc="http://purl.org/dc/elements/1.1/"
   xmlns:cc="http://creativecommons.org/ns#"
   xmlns:rdf="http://www.w3.org/1999/02/22-rdf-syntax-ns#"
   xmlns:svg="http://www.w3.org/2000/svg"
   xmlns="http://www.w3.org/2000/svg"
   xmlns:sodipodi="http://sodipodi.sourceforge.net/DTD/sodipodi-0.dtd"
   xmlns:inkscape="http://www.inkscape.org/namespaces/inkscape"
   width="256"
   height="256"
   id="svg3049"
   version="1.1"
   inkscape:version="0.48.2 r9819"
   sodipodi:docname="error.svg"
   inkscape:export-filename="/Users/toru/Documents/workspace/HeightMap/map-cache/error.png"
   inkscape:export-xdpi="90"
   inkscape:export-ydpi="90">
  <defs
     id="defs3051" />
  <sodipodi:namedview
     id="base"
     pagecolor="#ffffff"
     bordercolor="#666666"
     borderopacity="1.0"
     inkscape:pageopacity="0.0"
     inkscape:pageshadow="2"
     inkscape:zoom="1.4"
     inkscape:cx="162.42324"
     inkscape:cy="88.933054"
     inkscape:document-units="px"
     inkscape:current-layer="layer2"
     showgrid="false"
     inkscape:window-width="1440"
     inkscape:window-height="852"
     inkscape:window-x="0"
     inkscape:window-y="0"
     inkscape:window-maximized="1" />
  <metadata
     id="metadata3054">
    <rdf:RDF>
      <cc:Work
         rdf:about="">
        <dc:format>image/svg+xml</dc:format>
        <dc:type
           rdf:resource="http://purl.org/dc/dcmitype/StillImage" />
        <dc:title />
      </cc:Work>
    </rdf:RDF>
  </metadata>
  <g
     inkscape:groupmode="layer"
     id="layer2"
     inkscape:label="Layer"
     style="display:inline">
    <rect
       style="fill:#ff9bff"
       id="rect2987"
       width="256.42856"
       height="255"
       x="-0.71428573"
       y="0.99999899" />
    <path
       style="fill:#ffff00"
       d="m -0.14818991,128.2098 0,-127.1428549 127.85713991,0 127.85715,0 0,127.1428549 0,127.14286 -127.85715,0 -127.85713991,0 0,-127.14286 z M 164.38261,131.94667 c 9.06617,-5.29492 8.82079,-22.71344 -0.38703,-27.47321 -3.35338,-1.73346 -9.58033,-1.80142 -13.07576,-0.14273 -8.09169,3.83976 -10.18149,18.00852 -3.69438,25.04777 4.17536,4.53073 11.83394,5.67711 17.15717,2.56817 l 0,0 z m -80.959371,-0.87972 0,-2.14286 -7.142857,0 -7.142857,0 0,-4.64286 0,-4.64286 6.785714,0 6.785714,0 0,-2.14285 0,-2.14286 -6.785714,0 -6.785714,0 0,-3.92857 0,-3.92857 7.142857,0 7.142857,0 0,-2.14286 0,-2.14286 -9.642857,0 -9.642857,0 0,15 0,15 9.642857,0 9.642857,0 0,-2.14285 z m 10.714286,-3.92858 0,-6.07142 3.248393,0 c 3.924582,0 5.448632,1.39486 8.500402,7.77989 1.93321,4.04475 2.25806,4.36296 4.45397,4.36296 1.30276,0 2.36866,-0.16785 2.36866,-0.373 0,-0.96816 -5.71765,-11.59773 -6.65839,-12.37848 -0.93136,-0.77296 -0.85411,-1.09965 0.60516,-2.55892 2.14136,-2.14136 2.8672,-6.00039 1.75975,-9.35598 -1.23337,-3.73716 -4.95084,-5.29738 -12.670802,-5.31793 l -5.892858,-0.0157 0,15 0,15 2.142858,0 2.142857,0 0,-6.07143 z m 27.857145,0 0,-6.07142 3.24839,0 c 3.92459,0 5.44864,1.39486 8.5004,7.77989 1.93321,4.04475 2.25806,4.36296 4.45397,4.36296 1.30277,0 2.36867,-0.16873 2.36867,-0.37497 0,-0.95834 -5.30927,-10.86644 -6.54398,-12.21231 -1.23129,-1.34213 -1.25974,-1.5661 -0.24823,-1.95425 1.29486,-0.49688 3.22078,-4.64361 3.22078,-6.93472 0,-0.83718 -0.50691,-2.59036 -1.12647,-3.89598 -1.572,-3.31277 -5.21389,-4.62777 -12.81656,-4.62777 l -6.05697,0 0,15 0,15 2.5,0 2.5,0 0,-6.07143 z m 59.28571,0 0,-6.07142 3.2484,0 c 3.92458,0 5.44863,1.39486 8.5004,7.77989 1.93321,4.04475 2.25806,4.36296 4.45397,4.36296 1.30276,0 2.36866,-0.16873 2.36866,-0.37497 0,-0.95834 -5.30926,-10.86644 -6.54398,-12.21231 -1.23128,-1.34213 -1.25973,-1.5661 -0.24823,-1.95425 1.29486,-0.49688 3.22078,-4.64361 3.22078,-6.93472 0,-0.83718 -0.5069,-2.59036 -1.12646,-3.89598 -1.57201,-3.31277 -5.21389,-4.62777 -12.81657,-4.62777 l -6.05697,0 0,15 0,15 2.5,0 2.5,0 0,-6.07143 z"
       id="path2989"
       inkscape:connector-curvature="0" />
    <path
       style="fill:#ffff00"
       d="m 121.99467,112.13837 0,-4.64285 3.57143,0 c 4.0865,0 6.42857,1.69149 6.42857,4.64285 0,2.95137 -2.34207,4.64286 -6.42857,4.64286 l -3.57143,0 0,-4.64286 z"
       id="path2991"
       inkscape:connector-curvature="0" />
    <path
       style="fill:#ffff00"
       d="m 94.137525,112.13837 0,-4.64285 3.571428,0 c 4.086507,0 6.428567,1.69149 6.428567,4.64285 0,2.95137 -2.34206,4.64286 -6.428567,4.64286 l -3.571428,0 0,-4.64286 z"
       id="path2993"
       inkscape:connector-curvature="0" />
    <path
       style="fill:#ffff00"
       d="m 152.36158,128.08987 c -2.59553,-2.04164 -3.93834,-5.42659 -3.93834,-9.92775 0,-4.54673 1.70492,-8.27729 4.58569,-10.03398 6.37604,-3.8881 13.24008,1.33852 13.24008,10.08166 0,3.8405 -2.03131,8.64825 -4.33598,10.2625 -2.41277,1.68997 -7.15838,1.49996 -9.55145,-0.38243 z"
       id="path2995"
       inkscape:connector-curvature="0" />
    <path
       style="fill:#ffff00"
       d="m 181.28038,112.13837 0,-4.64285 3.57143,0 c 4.08651,0 6.42857,1.69149 6.42857,4.64285 0,2.95137 -2.34206,4.64286 -6.42857,4.64286 l -3.57143,0 0,-4.64286 z"
       id="path2997"
       inkscape:connector-curvature="0" />
  </g>
  <g
     inkscape:label="Layer 1"
     inkscape:groupmode="layer"
     id="layer1"
     transform="translate(0,-796.36218)"
     style="display:inline">
    <text
       xml:space="preserve"
       style="font-size:40px;font-style:normal;font-weight:normal;line-height:125%;letter-spacing:0px;word-spacing:0px;fill:#000000;fill-opacity:1;stroke:none;font-family:Sans"
       x="60.609154"
       y="929.12354"
       id="text3057"
       sodipodi:linespacing="125%"><tspan
         sodipodi:role="line"
         id="tspan3059"
         x="60.609154"
         y="929.12354">ERROR</tspan></text>
  </g>
</svg>
